<svg id="ehTYWumSiU21" xmlns="http://www.w3.org/2000/svg" xmlns:xlink="http://www.w3.org/1999/xlink" viewBox="0 0 224 226" shape-rendering="geometricPrecision" text-rendering="geometricPrecision"><style><![CDATA[#ehTYWumSiU29_to {animation: ehTYWumSiU29_to__to 3000ms linear infinite normal forwards}@keyframes ehTYWumSiU29_to__to { 0% {transform: translate(172.258003px,160.053px)} 66.666667% {transform: translate(156.769003px,176.077932px)} 83.333333% {transform: translate(172.022003px,160.24817px)} 100% {transform: translate(172.022003px,160.24817px)}} #ehTYWumSiU218_tr {animation: ehTYWumSiU218_tr__tr 3000ms linear infinite normal forwards}@keyframes ehTYWumSiU218_tr__tr { 0% {transform: translate(110.851551px,100.819653px) rotate(360deg)} 100% {transform: translate(110.851551px,100.819653px) rotate(720deg)}}]]></style><g><rect width="92.3077" height="92.3077" rx="20" ry="20" transform="translate(121.692 118.539)" fill="#ebf7f5"/></g><g clip-path="url(#ehTYWumSiU210)"><g><path d="M196.51,145.861l-9.834-9.833c-.48-.481-1.258-.481-1.738,0-.48.48-.48,1.258,0,1.738l1.59,1.589-6.358,6.357-4.047-4.047c-1.436-1.438-3.779-1.438-5.215,0-1.438,1.438-1.438,3.776,0,5.214l1.59,1.589-24.435,24.435c-.231.231-.36.543-.36.869c0,.199.04,4.4,2.041,7.283L138.229,192.57c-.48.48-.48,1.258,0,1.738.24.24.555.36.869.36.315,0,.629-.12.87-.36l11.514-11.514c2.872,1.997,7.064,2.041,7.283,2.041.327,0,.639-.13.869-.36l24.435-24.435l1.59,1.589c.696.697,1.622,1.081,2.607,1.081.984,0,1.911-.384,2.607-1.081c1.438-1.438,1.438-3.776,0-5.214l-4.048-4.048l6.357-6.357l1.59,1.589c.24.24.554.36.869.36.314,0,.629-.12.869-.36.48-.48.48-1.258,0-1.738Zm-21.765,20.027l-2.819-2.818c-.48-.48-1.258-.48-1.738,0s-.48,1.258,0,1.738l2.819,2.818-4.408,4.408-1.59-1.589c-.48-.48-1.258-.48-1.738,0s-.48,1.258,0,1.738l1.59,1.589-4.408,4.408-2.819-2.818c-.48-.481-1.258-.481-1.738,0-.48.48-.48,1.258,0,1.738l2.819,2.818-2.44,2.439c-1.209-.074-4.353-.423-6.008-2.066-.003-.004-.004-.009-.008-.013-.003-.003-.008-.004-.011-.008-1.641-1.658-1.994-4.799-2.068-6.008l16.365-16.364c2.695.207,4.41.695,6.08,1.171s4.375.931,7.766,1.173l-5.646,5.646Zm5.646-5.646c-3.391-.242-6.096-.697-7.766-1.173s-3.389-.964-6.08-1.171l7.691-7.691l8.095,8.095-1.94,1.94Zm8.744-2.089c.48.479.48,1.259,0,1.738-.466.463-1.273.463-1.738,0l-14.751-14.75c-.48-.479-.48-1.259,0-1.738.24-.24.555-.359.87-.359.314,0,.629.119.869.359l14.75,14.75Zm-4.048-7.524l-3.178-3.179l6.357-6.357l3.178,3.179-6.357,6.357Z" fill="#11c0ab"/><path d="M165.942,158.5c2.695.208,4.411.695,6.08,1.171-1.669-.476-3.388-.964-6.08-1.171Z" fill="#11c0ab"/><path d="M165.942,158.5c2.695.208,4.411.695,6.08,1.171-1.669-.476-3.388-.964-6.08-1.171Z" fill="#11c0ab"/><g id="ehTYWumSiU29_to" transform="translate(172.258003,160.053)"><path d="M170.676,159.864c-1.511-.08-3.262-.172-5.492-.915l.632-1.898c1.965.655,3.295.722,4.703.793.66.034,1.337.068,2.105.164c2.111.264,3.534.804,4.582,1.553c1.025.732,1.611,1.612,2.102,2.348l.024.036-1.664,1.11c-.505-.757-.916-1.36-1.624-1.866-.702-.502-1.779-.961-3.668-1.197-.539-.067-1.101-.097-1.7-.128Z" transform="translate(-172.258003,-160.052994)" clip-rule="evenodd" fill="#11c0ab" fill-rule="evenodd"/></g></g><clipPath id="ehTYWumSiU210"><rect width="59.0008" height="59.0008" rx="0" ry="0" transform="translate(137.87 135.668)" fill="#fff"/></clipPath></g><g><rect width="146.769" height="146.769" rx="20" ry="20" transform="translate(10 5)" fill="#ebf7f5"/></g><g clip-path="url(#ehTYWumSiU219)"><g><path d="M75.9414,69.7884c-10.6942,0-19.3945-8.7004-19.3945-19.3945s8.7003-19.3945,19.3945-19.3945c10.6941,0,19.3945,8.7004,19.3945,19.3945s-8.7004,19.3945-19.3945,19.3945Zm0-34.9101c-8.5569,0-15.5156,6.9587-15.5156,15.5156s6.9587,15.5156,15.5156,15.5156c8.5568,0,15.5156-6.9587,15.5156-15.5156s-6.9588-15.5156-15.5156-15.5156Z" fill="#11c0ab"/><path d="M77.8808,112.456h-34.9101c-1.0706,0-1.9395-.869-1.9395-1.939v-15.5157c0-9.6236,7.8316-17.4551,17.4551-17.4551h34.9101c1.0706,0,1.9395.8689,1.9395,1.9395s-.8689,1.9394-1.9395,1.9394h-34.9101c-7.4863,0-13.5761,6.0899-13.5761,13.5762v13.5757h32.9706c1.0706,0,1.9395.869,1.9395,1.94c0,1.07-.8689,1.939-1.9395,1.939Z" fill="#11c0ab"/><g id="ehTYWumSiU218_tr" transform="translate(110.851551,100.819653) rotate(360)"><path d="M112.791,124.093h-3.879c-3.208,0-5.818-2.61-5.818-5.818v-9.697h-9.6975c-3.2079,0-5.8184-2.611-5.8184-5.819v-3.8787c0-3.2079,2.6105-5.8184,5.8184-5.8184h9.6975v-9.6973c0-3.2078,2.61-5.8183,5.818-5.8183h3.879c3.208,0,5.818,2.6105,5.818,5.8183v9.6973h9.698c3.207,0,5.818,2.6105,5.818,5.8184v3.8787c0,3.208-2.611,5.819-5.818,5.819h-9.698v9.697c0,3.208-2.61,5.818-5.818,5.818ZM93.3965,96.9408c-1.0706,0-1.9395.8689-1.9395,1.9395v3.8787c0,1.071.8689,1.94,1.9395,1.94h11.6365c1.071,0,1.94.868,1.94,1.939v11.637c0,1.07.869,1.939,1.939,1.939h3.879c1.071,0,1.939-.869,1.939-1.939v-11.637c0-1.071.869-1.939,1.94-1.939h11.637c1.07,0,1.939-.869,1.939-1.94v-3.8787c0-1.0706-.869-1.9395-1.939-1.9395h-11.637c-1.071,0-1.94-.8689-1.94-1.9394v-11.6368c0-1.0705-.868-1.9394-1.939-1.9394h-3.879c-1.07,0-1.939.8689-1.939,1.9394v11.6368c0,1.0705-.869,1.9394-1.94,1.9394h-11.6365Z" transform="translate(-110.851551,-100.819653)" fill="#11c0ab"/></g></g><clipPath id="ehTYWumSiU219"><rect width="93.0936" height="93.0936" rx="0" ry="0" transform="translate(41.0312 30.9994)" fill="#fff"/></clipPath></g></svg>