<svg width="64" height="21" viewBox="0 0 64 21" fill="none" xmlns="http://www.w3.org/2000/svg">
<path d="M8.1 0.343999C10.172 0.343999 11.9827 0.754666 13.532 1.576C15.0813 2.39733 16.276 3.55467 17.116 5.048C17.9747 6.52267 18.404 8.23067 18.404 10.172C18.404 12.0947 17.9747 13.8027 17.116 15.296C16.276 16.7893 15.072 17.9467 13.504 18.768C11.9547 19.5893 10.1533 20 8.1 20H0.736V0.343999H8.1ZM7.792 15.856C9.60267 15.856 11.012 15.3613 12.02 14.372C13.028 13.3827 13.532 11.9827 13.532 10.172C13.532 8.36133 13.028 6.952 12.02 5.944C11.012 4.936 9.60267 4.432 7.792 4.432H5.524V15.856H7.792ZM26.1197 20.224C25.2797 20.224 24.5891 19.9813 24.0477 19.496C23.5251 18.992 23.2637 18.376 23.2637 17.648C23.2637 16.9013 23.5251 16.276 24.0477 15.772C24.5891 15.268 25.2797 15.016 26.1197 15.016C26.9411 15.016 27.6131 15.268 28.1357 15.772C28.6771 16.276 28.9477 16.9013 28.9477 17.648C28.9477 18.376 28.6771 18.992 28.1357 19.496C27.6131 19.9813 26.9411 20.224 26.1197 20.224ZM46.8181 16.528H39.4821L38.3061 20H33.2941L40.4061 0.343999H45.9501L53.0621 20H47.9941L46.8181 16.528ZM45.5861 12.832L43.1501 5.636L40.7421 12.832H45.5861ZM60.2666 20.224C59.4266 20.224 58.736 19.9813 58.1946 19.496C57.672 18.992 57.4106 18.376 57.4106 17.648C57.4106 16.9013 57.672 16.276 58.1946 15.772C58.736 15.268 59.4266 15.016 60.2666 15.016C61.088 15.016 61.76 15.268 62.2826 15.772C62.824 16.276 63.0946 16.9013 63.0946 17.648C63.0946 18.376 62.824 18.992 62.2826 19.496C61.76 19.9813 61.088 20.224 60.2666 20.224Z" fill="#363636"/>
</svg>
