<svg width="39" height="64" viewBox="0 0 39 64" fill="none" xmlns="http://www.w3.org/2000/svg">
<path d="M0.433982 42.8409V35.3925H3.03562C3.88152 35.3925 4.59591 35.5368 5.17878 35.8256C5.76878 36.1144 6.21304 36.537 6.51158 37.0934C6.81723 37.6428 6.97007 38.3154 6.97007 39.1114C6.97007 39.9002 6.81723 40.5729 6.51158 41.1293C6.21304 41.6856 5.76878 42.1119 5.17878 42.4077C4.59591 42.6966 3.88152 42.8409 3.03562 42.8409H0.433982ZM1.54288 41.9217H2.97165C3.93836 41.9217 4.65632 41.6893 5.12546 41.2244C5.60171 40.7596 5.83985 40.0552 5.83985 39.1114C5.83985 38.1675 5.60171 37.4667 5.12546 37.0089C4.65632 36.5441 3.93836 36.3116 2.97165 36.3116H1.54288V41.9217ZM9.01628 42.8409V37.516H10.0932V42.8409H9.01628ZM8.93098 36.4067V35.2974H10.1785V36.4067H8.93098ZM14.7316 45.2075C14.2482 45.2075 13.8075 45.151 13.4095 45.0384C13.0185 44.9259 12.6666 44.7568 12.3539 44.5313L12.6204 43.7495C12.8408 43.8974 13.0576 44.0136 13.2708 44.0981C13.4841 44.1896 13.708 44.2566 13.9426 44.2989C14.1772 44.3411 14.4188 44.3623 14.6676 44.3623C15.1794 44.3623 15.5633 44.2318 15.8192 43.9713C16.0822 43.7178 16.2137 43.348 16.2137 42.862V41.4357H16.3203C16.2065 41.8303 15.972 42.1436 15.6166 42.376C15.2683 42.6015 14.8631 42.7141 14.4011 42.7141C13.9106 42.7141 13.4841 42.6084 13.1216 42.3971C12.7661 42.1789 12.4889 41.8726 12.2899 41.478C12.098 41.0765 12.002 40.6046 12.002 40.0622C12.002 39.5199 12.098 39.0515 12.2899 38.6571C12.4889 38.2626 12.7661 37.9598 13.1216 37.7485C13.4841 37.5301 13.9106 37.421 14.4011 37.421C14.8702 37.421 15.2754 37.5372 15.6166 37.7696C15.9649 37.995 16.1959 38.3049 16.3096 38.6993L16.2137 38.6148L16.3096 37.516H17.3546C17.3261 37.7344 17.3048 37.9527 17.2906 38.1711C17.2764 38.3824 17.2693 38.5901 17.2693 38.7944V42.7352C17.2693 43.5382 17.0525 44.151 16.6189 44.5736C16.1924 44.9962 15.5633 45.2075 14.7316 45.2075ZM14.657 41.8795C15.1261 41.8795 15.4993 41.721 15.7765 41.404C16.0608 41.0871 16.203 40.6397 16.203 40.0622C16.203 39.4847 16.0608 39.0409 15.7765 38.731C15.4993 38.4211 15.1261 38.2662 14.657 38.2662C14.1736 38.2662 13.7897 38.4211 13.5054 38.731C13.2282 39.0409 13.0896 39.4847 13.0896 40.0622C13.0896 40.6397 13.2282 41.0871 13.5054 41.404C13.7897 41.721 14.1736 41.8795 14.657 41.8795ZM19.4796 42.8409V37.516H20.5565V42.8409H19.4796ZM19.3943 36.4067V35.2974H20.6418V36.4067H19.3943ZM24.8644 42.936C24.2816 42.936 23.8408 42.7811 23.5423 42.4711C23.2437 42.1541 23.0945 41.6824 23.0945 41.0554V38.3401H22.0495V37.516H23.0945V36.1109L24.1714 35.8256V37.516H25.6641V38.3401H24.1714V40.9603C24.1714 41.3549 24.2424 41.6365 24.3846 41.8055C24.5268 41.9745 24.7329 42.0591 25.003 42.0591C25.1381 42.0591 25.2554 42.0485 25.3549 42.0274C25.4615 41.9993 25.5575 41.9676 25.6428 41.9323V42.7986C25.5362 42.8409 25.4118 42.8726 25.2696 42.8937C25.1274 42.9217 24.9924 42.936 24.8644 42.936ZM29.3457 42.936C28.8694 42.936 28.4536 42.8267 28.0981 42.6084C27.7427 42.3902 27.4655 42.0733 27.2665 41.6576C27.0745 41.2419 26.9786 40.749 26.9786 40.1784C26.9786 39.6009 27.0745 39.1078 27.2665 38.6993C27.4655 38.2908 27.7427 37.9774 28.0981 37.759C28.4536 37.5336 28.8694 37.421 29.3457 37.421C29.8148 37.421 30.2235 37.5372 30.5718 37.7696C30.9201 38.002 31.1512 38.319 31.2649 38.7205H31.1476L31.2542 37.516H32.2992C32.2778 37.7344 32.2565 37.9527 32.2352 38.1711C32.2209 38.3824 32.2139 38.5901 32.2139 38.7944V42.8409H31.1369V41.6576H31.2542C31.1405 42.0522 30.9059 42.3655 30.5505 42.5979C30.2022 42.8234 29.8006 42.936 29.3457 42.936ZM29.6122 42.1013C30.0743 42.1013 30.4439 41.9392 30.7211 41.6153C31.0054 41.2915 31.1476 40.8124 31.1476 40.1784C31.1476 39.5445 31.0054 39.0691 30.7211 38.7522C30.4439 38.4282 30.0743 38.2662 29.6122 38.2662C29.1431 38.2662 28.7663 38.4282 28.482 38.7522C28.2048 39.0691 28.0662 39.5445 28.0662 40.1784C28.0662 40.8124 28.2048 41.2915 28.482 41.6153C28.7592 41.9392 29.136 42.1013 29.6122 42.1013ZM34.425 42.8409V35.0649H35.5019V42.8409H34.425ZM2.39587 53.501C1.91962 53.501 1.50378 53.3917 1.14837 53.1735C0.79295 52.9553 0.515726 52.6384 0.316695 52.2227C0.124771 51.807 0.0288086 51.3141 0.0288086 50.7436C0.0288086 50.1661 0.124771 49.6728 0.316695 49.2644C0.515726 48.8561 0.79295 48.5424 1.14837 48.3242C1.50378 48.0986 1.91962 47.9861 2.39587 47.9861C2.86502 47.9861 3.27375 48.1023 3.62206 48.3347C3.97035 48.5672 4.2014 48.8841 4.31512 49.2856H4.19783L4.30446 48.0812H5.34938C5.32805 48.2994 5.30673 48.518 5.2854 48.7362C5.27117 48.9475 5.26408 49.1551 5.26408 49.3595V53.406H4.18717V52.2227H4.30446C4.19074 52.6172 3.95616 52.9305 3.60073 53.163C3.25243 53.3885 2.85081 53.501 2.39587 53.501ZM2.66244 52.6664C3.12448 52.6664 3.49411 52.5043 3.77133 52.1804C4.05565 51.8566 4.19783 51.3775 4.19783 50.7436C4.19783 50.1097 4.05565 49.6342 3.77133 49.3173C3.49411 48.9934 3.12448 48.8313 2.66244 48.8313C2.19329 48.8313 1.81655 48.9934 1.53222 49.3173C1.25499 49.6342 1.11638 50.1097 1.11638 50.7436C1.11638 51.3775 1.25499 51.8566 1.53222 52.1804C1.80944 52.5043 2.18618 52.6664 2.66244 52.6664ZM9.8956 55.7725C9.41222 55.7725 8.9715 55.7161 8.57346 55.6035C8.18247 55.4909 7.83061 55.3219 7.51787 55.0964L7.78444 54.3146C8.00478 54.4625 8.2216 54.5787 8.43485 54.6632C8.6481 54.7546 8.87201 54.8217 9.10658 54.8639C9.34116 54.9062 9.58282 54.9273 9.83163 54.9273C10.3434 54.9273 10.7273 54.7969 10.9832 54.5364C11.2462 54.2829 11.3777 53.9131 11.3777 53.4271V52.0008H11.4843C11.3705 52.3954 11.136 52.7087 10.7806 52.9411C10.4323 53.1666 10.0271 53.2792 9.56507 53.2792C9.07459 53.2792 8.6481 53.1735 8.28557 52.9622C7.93014 52.744 7.65292 52.4376 7.4539 52.0431C7.26198 51.6416 7.16601 51.1698 7.16601 50.6273C7.16601 50.0849 7.26198 49.6168 7.4539 49.2222C7.65292 48.8276 7.93014 48.5249 8.28557 48.3136C8.6481 48.0954 9.07459 47.9861 9.56507 47.9861C10.0342 47.9861 10.4394 48.1023 10.7806 48.3347C11.1289 48.5602 11.3599 48.8699 11.4736 49.2644L11.3777 49.1799L11.4736 48.0812H12.5186C12.4901 48.2994 12.4688 48.518 12.4546 48.7362C12.4404 48.9475 12.4333 49.1551 12.4333 49.3595V53.3003C12.4333 54.1033 12.2165 54.716 11.7829 55.1386C11.3564 55.5612 10.7273 55.7725 9.8956 55.7725ZM9.82097 52.4445C10.2901 52.4445 10.6633 52.2861 10.9405 51.9691C11.2248 51.6522 11.367 51.2048 11.367 50.6273C11.367 50.0499 11.2248 49.6062 10.9405 49.2961C10.6633 48.9861 10.2901 48.8313 9.82097 48.8313C9.33759 48.8313 8.95374 48.9861 8.66942 49.2961C8.3922 49.6062 8.25358 50.0499 8.25358 50.6273C8.25358 51.2048 8.3922 51.6522 8.66942 51.9691C8.95374 52.2861 9.33759 52.4445 9.82097 52.4445ZM17.128 53.501C16.2608 53.501 15.5784 53.258 15.0808 52.7721C14.5832 52.2861 14.3344 51.6136 14.3344 50.7541C14.3344 50.1978 14.4411 49.7118 14.6543 49.2961C14.8746 48.8804 15.1768 48.5602 15.5606 48.3347C15.9516 48.1023 16.4029 47.9861 16.9147 47.9861C17.4194 47.9861 17.8424 48.0917 18.1836 48.303C18.5248 48.5143 18.7842 48.8138 18.9619 49.2011C19.1396 49.5814 19.2285 50.032 19.2285 50.5534V50.8915H15.1768V50.2787H18.4928L18.3115 50.416C18.3115 49.8878 18.1907 49.4794 17.949 49.1905C17.7144 48.8947 17.3732 48.7468 16.9254 48.7468C16.4278 48.7468 16.0439 48.9195 15.7739 49.2644C15.5037 49.6025 15.3687 50.071 15.3687 50.6696V50.7753C15.3687 51.4023 15.5215 51.874 15.8272 52.191C16.1399 52.5079 16.5806 52.6664 17.1493 52.6664C17.4621 52.6664 17.7535 52.6241 18.0236 52.5396C18.3009 52.4482 18.5639 52.3003 18.8127 52.0959L19.1645 52.8249C18.9157 53.0431 18.6136 53.2121 18.2582 53.332C17.9028 53.4446 17.526 53.501 17.128 53.501ZM21.104 53.406V49.3595C21.104 49.1551 21.0933 48.9475 21.072 48.7362C21.0578 48.518 21.04 48.2994 21.0187 48.0812H22.0636L22.1596 49.2011H22.0316C22.1951 48.8065 22.4475 48.5074 22.7887 48.303C23.1298 48.0917 23.5244 47.9861 23.9722 47.9861C24.6048 47.9861 25.0811 48.1588 25.401 48.5038C25.728 48.8488 25.8914 49.3843 25.8914 50.1097V53.406H24.8145V50.173C24.8145 49.7013 24.7186 49.3632 24.5266 49.1588C24.3418 48.9475 24.0575 48.8418 23.6736 48.8418C23.2187 48.8418 22.8562 48.9828 22.5861 49.2644C22.316 49.5391 22.1809 49.9126 22.1809 50.3843V53.406H21.104ZM30.4206 53.501C29.8803 53.501 29.4076 53.3917 29.0024 53.1735C28.6044 52.948 28.2952 52.6278 28.0748 52.2121C27.8616 51.7895 27.7549 51.2893 27.7549 50.7119C27.7549 50.1413 27.8651 49.6517 28.0855 49.2433C28.3059 48.8349 28.6151 48.5249 29.0131 48.3136C29.4112 48.0954 29.8803 47.9861 30.4206 47.9861C30.7689 47.9861 31.1065 48.0458 31.4335 48.1657C31.7605 48.2782 32.0306 48.4404 32.2438 48.6517L31.892 49.4018C31.693 49.2116 31.469 49.0706 31.2202 48.9792C30.9715 48.8804 30.7298 48.8313 30.4952 48.8313C29.9834 48.8313 29.5818 48.9934 29.2903 49.3173C28.9989 49.6411 28.8532 50.1097 28.8532 50.7224C28.8532 51.3421 28.9989 51.8175 29.2903 52.1487C29.5818 52.4799 29.9834 52.6453 30.4952 52.6453C30.7227 52.6453 30.9608 52.603 31.2096 52.5185C31.4584 52.4271 31.6859 52.2824 31.892 52.0853L32.2438 52.8354C32.0235 53.0467 31.7463 53.2121 31.4122 53.332C31.0852 53.4446 30.7547 53.501 30.4206 53.501ZM33.9273 55.8042L33.6714 54.9379C34.0055 54.8676 34.2827 54.7831 34.503 54.6843C34.7305 54.5856 34.9189 54.4556 35.0682 54.2934C35.2174 54.1386 35.3454 53.9379 35.452 53.6912L35.7186 53.0679L35.6972 53.501L33.3622 48.0812H34.5137L36.3263 52.5185H36.0384L37.8511 48.0812H38.96L36.4969 53.7863C36.3406 54.1386 36.1735 54.4344 35.9958 54.6738C35.8181 54.9131 35.6262 55.1069 35.42 55.2549C35.2139 55.4028 34.9864 55.519 34.7376 55.6035C34.4888 55.688 34.2187 55.7551 33.9273 55.8042ZM0.433982 63.971V56.5227H3.03562C3.88152 56.5227 4.59591 56.6669 5.17878 56.9558C5.76878 57.2447 6.21304 57.6673 6.51158 58.2236C6.81723 58.773 6.97007 59.4455 6.97007 60.2416C6.97007 61.0303 6.81723 61.7032 6.51158 62.2595C6.21304 62.8158 5.76878 63.2421 5.17878 63.5379C4.59591 63.8268 3.88152 63.971 3.03562 63.971H0.433982ZM1.54288 63.0519H2.97165C3.93836 63.0519 4.65632 62.8194 5.12546 62.3546C5.60171 61.8897 5.83985 61.1855 5.83985 60.2416C5.83985 59.2976 5.60171 58.5971 5.12546 58.1391C4.65632 57.6743 3.93836 57.4418 2.97165 57.4418H1.54288V63.0519ZM8.46064 63.971V62.7138H9.72947V63.971H8.46064ZM11.3165 63.971L14.6645 56.5227H15.6134L19.0148 63.971H17.8739L16.9462 61.858L17.4154 62.1538H12.8625L13.3637 61.858L12.436 63.971H11.3165ZM15.123 57.7271L13.5023 61.5199L13.2464 61.2769H17.0315L16.8183 61.5199L15.1656 57.7271H15.123ZM20.6004 63.971V62.7138H21.8693V63.971H20.6004Z" fill="#363636"/>
<path fill-rule="evenodd" clip-rule="evenodd" d="M3.5788 4.81609C3.54128 4.84531 3.51977 4.89009 3.51977 4.93739V29.3567C3.51977 29.4429 3.44925 29.5128 3.36224 29.5128H0.52667C0.439669 29.5128 0.369141 29.4429 0.369141 29.3567V3.76966C0.369141 3.60181 0.437343 3.44103 0.558367 3.32359L0.842201 3.04814C3.59441 0.3773 7.64729 -0.375726 11.4669 0.163432C15.3031 0.70493 19.188 2.57822 21.8139 5.55561C25.7006 9.96246 27.5523 14.7928 27.1055 19.1306C26.6501 23.5521 23.8315 27.1698 19.0406 29.0164L17.9914 29.4208C17.842 29.4784 17.6728 29.4156 17.5982 29.275L9.96052 14.8626C9.88403 14.7183 9.66353 14.7721 9.66353 14.9352V20.6467C9.66353 20.733 9.73402 20.8028 9.82104 20.8028H11.2861C11.3731 20.8028 11.4436 20.8727 11.4436 20.9589V23.7686C11.4436 23.8548 11.3731 23.9247 11.2861 23.9247H6.67041C6.58339 23.9247 6.51289 23.8548 6.51289 23.7686V7.40238C6.51289 7.3162 6.58339 7.2463 6.67041 7.2463H9.3877C9.44626 7.2463 9.49998 7.27849 9.52717 7.32985L19.1014 25.3965C19.1418 25.4728 19.2375 25.502 19.314 25.461C22.1835 23.923 23.6901 21.5424 23.9712 18.8137C24.3039 15.5833 22.9419 11.5788 19.4415 7.6099C17.373 5.26454 14.2083 3.70378 11.0226 3.25409C8.11427 2.84357 5.4211 3.38209 3.5788 4.81609Z" fill="#363636"/>
</svg>
